<svg width="47" height="47" viewBox="0 0 47 47" fill="none" xmlns="http://www.w3.org/2000/svg">
<path d="M11.561 2.76708C14.3384 1.86527 22.2153 5.062 23.2244 6.21203C24.2268 7.35619 17.6828 7.82913 14.1299 8.35567C10.4639 8.90719 6.80741 9.56592 5.80793 8.41222C4.80918 7.27467 8.78729 3.67477 11.561 2.76708Z" fill="white"/>
<path d="M30.677 0.762446C33.8509 -0.164336 42.3624 3.64707 43.3905 4.94545C44.4083 6.25998 37.0895 6.58751 33.0945 7.06999C28.9593 7.56496 24.8174 8.18624 23.7988 6.87759C22.7736 5.57921 27.514 1.67968 30.6792 0.762446" fill="white"/>
<path d="M12.0472 6.02726C13.9543 4.77294 22.1625 6.0559 23.546 6.84388C24.9428 7.62526 19.6502 9.20784 16.8999 10.2888C14.0718 11.4073 11.301 12.6337 9.90794 11.8332C8.50601 11.0548 10.1481 7.29405 12.0486 6.02726" fill="white"/>
<path d="M19.7419 0.0661833C22.5186 0.315136 25.4407 5.17229 25.1697 6.32306C24.9082 7.46721 19.7735 5.69884 16.7501 4.92701C13.6363 4.13536 10.4242 3.4355 10.7017 2.29134C10.9698 1.1347 16.9586 -0.179832 19.7419 0.0661833Z" fill="white"/>
<path d="M29.252 5.49685C32.039 5.73626 34.9581 10.5971 34.6864 11.7442C34.4154 12.8949 29.2836 11.1229 26.2602 10.354C23.1552 9.56603 19.9335 8.85662 20.2111 7.70953C20.474 6.56243 26.4753 5.25451 29.252 5.49906" fill="white"/>
<path d="M3.46101 37.9203C3.46101 44.8462 13.3589 46.8635 23.9471 46.8635C34.5346 46.8635 44.4362 44.8462 44.4362 37.9203C44.4362 31.0076 34.5354 10.3578 23.9471 10.3578C13.3589 10.3578 3.46101 31.0084 3.46101 37.9203Z" fill="white"/>
<path d="M30.3022 11.2089C30.3023 11.5533 30.2346 11.8944 30.1029 12.2127C29.9712 12.531 29.778 12.8201 29.5345 13.0637C29.2909 13.3072 29.0018 13.5004 28.6835 13.6321C28.3652 13.7639 28.0241 13.8316 27.6797 13.8314H20.2148C19.5193 13.8314 18.8522 13.5551 18.3604 13.0633C17.8686 12.5715 17.5923 11.9044 17.5923 11.2089C17.5923 10.5134 17.8686 9.84636 18.3604 9.35455C18.8522 8.86275 19.5193 8.58646 20.2148 8.58646H27.679C28.0234 8.58636 28.3645 8.65412 28.6828 8.78587C29.001 8.91762 29.2902 9.11077 29.5338 9.3543C29.7774 9.59782 29.9706 9.88695 30.1025 10.2052C30.2343 10.5234 30.3022 10.8645 30.3022 11.2089Z" fill="#845939"/>
<path d="M28.7797 30.0844C27.9667 29.2171 26.8446 28.637 25.779 28.1552C24.6694 27.65 23.0619 27.238 22.3554 26.1504C21.7627 25.2398 22.5794 24.2843 23.4114 24.0068C24.7509 23.5566 26.4033 24.0985 27.579 24.7602C28.165 25.0878 28.7834 24.7668 29.0066 24.1801C29.2526 23.5309 29.4986 22.881 29.741 22.2325C29.8893 21.8381 29.6499 21.3336 29.2974 21.1353C28.2289 20.5427 27.1156 20.2181 25.9399 20.0639V18.0781C25.9399 17.5487 25.4985 17.1073 24.969 17.1073H23.1375C22.6109 17.1073 22.1666 17.5487 22.1666 18.0781V20.296C20.3542 20.8188 18.7026 21.9858 18.0593 23.8393C17.344 25.8912 17.7788 28.0157 19.3011 29.5696C20.1177 30.4054 21.2208 30.9539 22.268 31.4291C23.4496 31.9622 24.9029 32.3463 25.6659 33.4846C26.4826 34.7015 25.4265 35.9022 24.2853 36.2466C22.7534 36.7063 20.8969 36.0167 19.6103 35.2155C19.0463 34.863 18.3905 35.2251 18.1856 35.7957L17.4762 37.7719C17.3249 38.1941 17.5768 38.6421 17.9234 38.8683C19.1374 39.6629 20.5305 40.0565 21.9581 40.221V42.311C21.9581 42.5952 22.0624 42.8126 22.2166 42.9668C22.2261 42.9771 22.2357 42.9859 22.2416 42.9955C22.2504 43.0046 22.2599 43.013 22.2702 43.0205C22.4244 43.1783 22.6418 43.2819 22.926 43.2819H24.7891C25.0456 43.2796 25.2909 43.1765 25.472 42.9948C25.6531 42.8132 25.7555 42.5675 25.757 42.311V40.0036C27.7714 39.4235 29.3283 38.1222 30.1133 36.1012C30.9182 34.0398 30.2338 31.6406 28.7746 30.0837" fill="#0459FD"/>
<path d="M28.7797 28.7433C27.9667 27.8796 26.8446 27.2995 25.779 26.8177C24.6694 26.3125 23.0619 25.9005 22.3554 24.81C21.7627 23.9052 22.5794 22.9469 23.4114 22.6663C24.7509 22.2191 26.4033 22.7581 27.579 23.4198C28.165 23.751 28.7834 23.4257 29.0066 22.8396C29.2526 22.1904 29.4986 21.5442 29.741 20.895C29.8893 20.4977 29.6499 19.9932 29.2974 19.7979C28.2289 19.2023 27.1156 18.8806 25.9399 18.7235V16.7377C25.9399 16.2112 25.4985 15.7698 24.969 15.7698H23.1375C22.6109 15.7698 22.1666 16.2112 22.1666 16.7377V18.9555C20.3542 19.4791 18.7026 20.6483 18.0593 22.5018C17.344 24.5537 17.7788 26.6782 19.3011 28.2292C20.1177 29.0649 21.2208 29.6164 22.268 30.0886C23.4496 30.6218 24.9029 31.0059 25.6659 32.1442C26.4826 33.3603 25.4265 34.5617 24.2853 34.9084C22.7534 35.3688 20.8969 34.6792 19.6103 33.8751C19.0463 33.5248 18.3905 33.8876 18.1856 34.4552L17.4762 36.4344C17.3249 36.853 17.5768 37.3046 17.9234 37.5308C19.1374 38.3225 20.5305 38.719 21.9581 38.8835V40.9736C21.9581 41.2541 22.0624 41.4722 22.2166 41.6294C22.2261 41.6396 22.2357 41.6484 22.2416 41.658C22.2518 41.6655 22.2614 41.6738 22.2702 41.683C22.4244 41.8372 22.6418 41.9415 22.926 41.9415H24.7891C25.045 41.9392 25.2897 41.8366 25.4707 41.6557C25.6517 41.4748 25.7545 41.2302 25.757 40.9743V38.6639C27.7714 38.0845 29.3283 36.7854 30.1133 34.7622C30.9182 32.7016 30.2338 30.2994 28.7746 28.7425" fill="#0459FD"/>
</svg>
