<svg width="45" height="45" viewBox="0 0 45 45" fill="none" xmlns="http://www.w3.org/2000/svg">
<g clip-path="url(#clip0_2_284)">
<path d="M2.37463 -1C1.47953 -1 0.621084 -0.644421 -0.0118516 -0.0114854C-0.644787 0.62145 -1.00037 1.47989 -1.00037 2.375L-1.00037 40.625C-1.00037 42.4906 0.509009 44 2.37463 44H40.6246C42.4903 44 43.9996 42.4906 43.9996 40.625V2.375C43.9996 0.509375 42.4903 -1 40.6246 -1H2.37463ZM21.5428 7.23125L38.9615 35.54L21.5428 17.1275L4.00963 35.54L21.5428 7.23312V7.23125ZM21.5428 21.4494L24.6046 24.62H18.4453L21.5428 21.4494ZM16.4559 26.6788H26.5996L29.4046 29.63H13.649L16.454 26.6788H16.4559Z" fill="#F3E4E9"/>
</g>
<defs>
<clipPath id="clip0_2_284">
<rect width="45" height="45" fill="white" transform="translate(-0.000366211)"/>
</clipPath>
</defs>
</svg>
